<svg id="Layer_1_1571834520179" data-name="Layer 1 1571834520179" xmlns="http://www.w3.org/2000/svg" viewBox="0 0 17 20"><defs><style>.cls-1{fill:#8e8fa6;}</style></defs><path class="cls-1" d="M17,8.75A8.59,8.59,0,0,0,8.5,0,8.59,8.59,0,0,0,0,8.75a8.77,8.77,0,0,0,4.35,7.62L2.54,20H14.38l-1.83-3.55A8.75,8.75,0,0,0,17,8.75ZM3.32,14.09A7.58,7.58,0,0,1,1.17,8.75,7.58,7.58,0,0,1,3.32,3.42a7.18,7.18,0,0,1,10.36,0,7.58,7.58,0,0,1,2.15,5.33,7.58,7.58,0,0,1-2.15,5.34,7.18,7.18,0,0,1-10.36,0Zm5.14,4.7h-4l1-1.92a8.32,8.32,0,0,0,3.08.6,8.15,8.15,0,0,0,3-.58l1,1.9Z"/><path class="cls-1" d="M9.09,10.83h2.13v.5a1.32,1.32,0,0,0-.7.64,1.26,1.26,0,0,0-.06,1,1.3,1.3,0,0,0,.65.75,1.28,1.28,0,0,0,.57.13,1.23,1.23,0,0,0,.42-.07,1.27,1.27,0,0,0,.75-.65,1.31,1.31,0,0,0,.07-1,1.34,1.34,0,0,0-.78-.8V10.5a.59.59,0,0,0-.59-.6H9.09V8h2.75a1.35,1.35,0,0,0,.65.68,1.24,1.24,0,0,0,1,.06,1.33,1.33,0,0,0,.73-.67,1.31,1.31,0,0,0-.63-1.73,1.26,1.26,0,0,0-1,0,1.31,1.31,0,0,0-.78.78h-.44V5.93a1.3,1.3,0,1,0-1.69-.81,1.29,1.29,0,0,0,.77.81V7.08H9.09V5H8.46A3.74,3.74,0,0,0,4.81,8.75a3.74,3.74,0,0,0,3.65,3.8h.63Zm2.34,1.45a.36.36,0,0,1,.26-.11h.05a.37.37,0,0,1,.33.37.38.38,0,0,1-.75,0A.39.39,0,0,1,11.43,12.28ZM13,7.14a.4.4,0,0,1,.27.11.39.39,0,0,1,0,.54.36.36,0,0,1-.26.11.38.38,0,0,1,0-.76ZM10.65,4.45a.37.37,0,0,1,.64.26.37.37,0,0,1-.3.37h-.07A.4.4,0,0,1,10.65,5a.39.39,0,0,1-.11-.27A.36.36,0,0,1,10.65,4.45ZM5.94,8.75a2.63,2.63,0,0,1,2-2.55v5.11A2.63,2.63,0,0,1,5.94,8.75Z"/></svg>