<svg xmlns="http://www.w3.org/2000/svg" xmlns:xlink="http://www.w3.org/1999/xlink" version="1.2" overflow="visible" preserveAspectRatio="none" viewBox="0 0 450 514" xml:space="preserve" y="0px" x="0px" id="Layer_1_1571307330664" width="17" height="20"><g transform="translate(1, 1)"><path d="M363.7,86.8v284.4H84.3V86.8H363.7 M381.2,56H66.8c-7,0-12.8,5.8-12.8,13V389c0,7.1,5.7,13,12.8,13h314.5  c7,0,12.8-5.8,12.8-13V69C394,61.8,388.3,56,381.2,56z M400,0H48C21.5,0,0,21.5,0,48v416c0,26.5,21.5,48,48,48h352  c26.5,0,48-21.5,48-48V48C448,21.5,426.5,0,400,0z M418.6,466.9c0,8.9-7.3,16.2-16.2,16.2H45.6c-8.9,0-16.2-7.3-16.2-16.2V45.1  c0-8.9,7.3-16.2,16.2-16.2h356.9c8.9,0,16.2,7.3,16.2,16.2V466.9z M224,417.7c-13,0-23.4,10.5-23.4,23.4c0,13,10.5,23.4,23.4,23.4  s23.4-10.5,23.4-23.4C247.4,428.2,237,417.7,224,417.7z" vector-effect="non-scaling-stroke" style="fill: rgb(38, 39, 59);"/><path d="M272.2,168.5h-96.5c-7.7,0-13.9-6.2-13.9-13.9v0c0-7.7,6.2-13.9,13.9-13.9h96.5c7.7,0,13.9,6.2,13.9,13.9v0  C286.1,162.3,279.9,168.5,272.2,168.5z" vector-effect="non-scaling-stroke" style="fill: rgb(38, 39, 59);"/><path d="M322.9,336.6H123.8c-8.2,0-14.8-6.6-14.8-14.8l0,0c0-8.2,6.6-14.8,14.8-14.8h199.1c8.2,0,14.8,6.6,14.8,14.8l0,0  C337.7,329.9,331,336.6,322.9,336.6z" vector-effect="non-scaling-stroke" style="fill: rgb(38, 39, 59);"/><path d="M322.9,288.6H123.8c-8.2,0-14.8-6.6-14.8-14.8v0c0-8.2,6.6-14.8,14.8-14.8h199.1c8.2,0,14.8,6.6,14.8,14.8v0  C337.7,282,331,288.6,322.9,288.6z" vector-effect="non-scaling-stroke" style="fill: rgb(38, 39, 59);"/><path d="M323.6,240.6H146.9c-7.7,0-14-6.3-14-14V225c0-7.7,6.3-14,14-14h176.8c7.7,0,14,6.3,14,14v1.6  C337.7,234.3,331.4,240.6,323.6,240.6z" style="fill: rgb(38, 39, 59);"/></g></svg>
