<svg version="1.2" xmlns="http://www.w3.org/2000/svg" xmlns:xlink="http://www.w3.org/1999/xlink" overflow="visible"
     preserveAspectRatio="none" viewBox="0 0 450 514" xml:space="preserve" y="0px" x="0px" id="Layer_1_1571306241556"
     width="18" height="20"><g transform="translate(1, 1)"><path d="M256,429c0,17.7-14.3,32-32,32s-32-14.3-32-32c0-21.3,14.3-32,32-32S256,411.3,256,429z M448,48v416c0,26.5-21.5,48-48,48  H48c-26.5,0-48-21.5-48-48V48C0,21.5,21.5,0,48,0h352C426.5,0,448,21.5,448,48z M416,48c0-8.8-7.2-16-16-16H48c-8.8,0-16,7.2-16,16  v416c0,8.8,7.2,16,16,16h352c8.8,0,16-7.2,16-16V48z" vector-effect="non-scaling-stroke" style="fill: rgb(38, 39, 59);"/><g>
	<path
    d="M361,93.9v260.6H92V93.9H361 M368.7,67.9H84.3C74.2,67.9,66,76.1,66,86.2v276c0,10.1,8.2,18.3,18.3,18.3h284.4   c10.1,0,18.3-8.2,18.3-18.3v-276C387,76.1,378.8,67.9,368.7,67.9L368.7,67.9z"
    vector-effect="non-scaling-stroke" style="fill: rgb(38, 39, 59);"/></g><g><g><path d="M198.7,160.1h127.2c1.5,0,2.8-1.7,2.8-3.7v-14.8c0-2-1.3-3.7-2.8-3.7H198.7c-1.5,0-2.8,1.7-2.8,3.7v14.8    C195.9,158.4,197.1,160.1,198.7,160.1z" vector-effect="non-scaling-stroke" style="fill: rgb(38, 39, 59);"/><path
  d="M161.2,126.7h-29.6c-4.1,0-7.4,3.3-7.4,7.4v29.6c0,4.1,3.3,7.4,7.4,7.4h29.6c4.1,0,7.4-3.3,7.4-7.4v-29.6    C168.6,130.1,165.4,126.7,161.2,126.7z"
  vector-effect="non-scaling-stroke" style="fill: rgb(38, 39, 59);"/></g>
  <g><path d="M198.7,235.4h127.2c1.5,0,2.8-1.7,2.8-3.7v-14.8c0-2-1.3-3.7-2.8-3.7H198.7c-1.5,0-2.8,1.7-2.8,3.7v14.8    C195.9,233.7,197.1,235.4,198.7,235.4z" vector-effect="non-scaling-stroke" style="fill: rgb(38, 39, 59);"/>
    <path
      d="M161.2,202h-29.6c-4.1,0-7.4,3.3-7.4,7.4V239c0,4.1,3.3,7.4,7.4,7.4h29.6c4.1,0,7.4-3.3,7.4-7.4v-29.6    C168.6,205.4,165.4,202,161.2,202z"
      vector-effect="non-scaling-stroke" style="fill: rgb(38, 39, 59);"/></g>
  <g><path d="M198.7,310.7h127.2c1.5,0,2.8-1.7,2.8-3.7v-14.8c0-2-1.3-3.7-2.8-3.7H198.7c-1.5,0-2.8,1.7-2.8,3.7V307    C195.9,309,197.1,310.7,198.7,310.7z" vector-effect="non-scaling-stroke" style="fill: rgb(38, 39, 59);"/>
    <path
      d="M161.2,277.3h-29.6c-4.1,0-7.4,3.3-7.4,7.4v29.6c0,4.1,3.3,7.4,7.4,7.4h29.6c4.1,0,7.4-3.3,7.4-7.4v-29.6    C168.6,280.7,165.4,277.3,161.2,277.3z"
      vector-effect="non-scaling-stroke" style="fill: rgb(38, 39, 59);"/></g>
</g></g></svg>
