<svg xmlns="http://www.w3.org/2000/svg" xmlns:xlink="http://www.w3.org/1999/xlink" version="1.2" overflow="visible" preserveAspectRatio="none" viewBox="0 0 514 514" xml:space="preserve" y="0px" x="0px" id="Layer_1_1571307516704" width="20" height="20"><g transform="translate(1, 1)"><style type="text/css">
	.st0_1571307516704{fill:#394042;}</style><path d="M432,192h-16v-82.8c0-8.5-3.4-16.6-9.4-22.6L329.4,9.4c-6-6-14.1-9.4-22.6-9.4H126.5C109.6,0,96,14.3,96,32v160  H80c-44.2,0-80,35.8-80,80v96c0,8.8,7.2,16,16,16h80v112c0,8.8,7.2,16,16,16h288c8.8,0,16-7.2,16-16V384h80c8.8,0,16-7.2,16-16v-96  C512,227.8,476.2,192,432,192z M320,45.2L370.8,96H320V45.2z M128.1,32H288v64c0,17.7,14.3,32,32,32h64v64H128L128.1,32L128.1,32z   M384,480H128v-96h256V480z M480,352H32v-80c0-26.5,21.5-48,48-48h352c26.5,0,48,21.5,48,48V352z M400,264c-13.2,0-24,10.7-24,24  c0,13.2,10.8,24,24,24s24-10.8,24-24C424,274.7,413.2,264,400,264z" class="st0_1571307516704" style="fill: rgb(38, 39, 59);"/></g></svg>
