<svg version="1.2" xmlns="http://www.w3.org/2000/svg" xmlns:xlink="http://www.w3.org/1999/xlink" overflow="visible"
     preserveAspectRatio="none" viewBox="0 0 450 514" xml:space="preserve" y="0px" x="0px" id="Layer_1_1571306241556"
     width="17" height="20"><g transform="translate(1, 1)"><path d="M224,30c51.8,0,100.5,20.2,137.2,56.8C397.8,123.5,418,172.2,418,224s-20.2,100.5-56.8,137.2C324.5,397.8,275.8,418,224,418  s-100.5-20.2-137.2-56.8C50.2,324.5,30,275.8,30,224S50.2,123.5,86.8,86.8C123.5,50.2,172.2,30,224,30 M224,0C100.3,0,0,100.3,0,224  s100.3,224,224,224s224-100.3,224-224S347.7,0,224,0L224,0z" vector-effect="non-scaling-stroke" style="fill: rgb(38, 39, 59);"/><path
  d="M224,156.3c37.3,0,67.7,30.4,67.7,67.7s-30.4,67.7-67.7,67.7s-67.7-30.4-67.7-67.7S186.7,156.3,224,156.3 M224,126.3  c-54,0-97.7,43.8-97.7,97.7s43.8,97.7,97.7,97.7s97.7-43.8,97.7-97.7S278,126.3,224,126.3L224,126.3z"
  vector-effect="non-scaling-stroke" style="fill: rgb(38, 39, 59);"/><polygon
  points="325.5,409.9 285.5,430.7 302.1,429.9 329.8,482 223,482 116.2,482 143.9,429.9 160.5,430.7 120.5,409.9 66.3,512   223,512 379.7,512"
  vector-effect="non-scaling-stroke" style="fill: rgb(38, 39, 59);"/></g></svg>
