<svg version="1.2" xmlns="http://www.w3.org/2000/svg" xmlns:xlink="http://www.w3.org/1999/xlink" overflow="visible" preserveAspectRatio="none" viewBox="0 0 681.5 554.5" xml:space="preserve" y="0px" x="0px" id="Layer_1_1622460325104" width="26" height="22"><g transform="translate(1, 1)"><g>
	<g>
		<path d="M661.6,340.1c-2.4-3.4-6.1-5.5-10.2-5.8c-4.1-0.3-8.1,1.4-10.9,4.4l-3.2,3.5c-4.2,4.6-4.6,11.4-1.2,16.5    c7.7,11.3,11.7,24.4,11.7,38.1c0,37.5-30.5,68-68,68h-86.6v-30.7c0-10.5-6.3-19.7-16.1-23.4c-9.8-3.8-20.7-1.2-27.7,6.6L407.5,464    c-8.6,9.6-8.6,24,0,33.6l41.9,46.5c4.9,5.4,11.6,8.3,18.6,8.3c3,0,6.1-0.6,9.1-1.7c9.8-3.8,16.1-13,16.1-23.4v-30.7h86.6    c54.9,0,99.6-44.7,99.6-99.6C679.5,376.6,673.3,356.9,661.6,340.1z M461.6,451.2v59.2L435,480.8L461.6,451.2z" vector-effect="non-scaling-stroke" style="fill: rgb(115, 115, 148);"/>
		<path d="M399.8,422.1c-7.7-11.3-11.7-24.4-11.7-38.1c0-37.5,30.5-68,68-68h86.6v30.7c0,10.5,6.3,19.7,16.1,23.4    c9.8,3.8,20.7,1.2,27.7-6.6l41.9-46.5c8.6-9.6,8.6-24,0-33.6l-41.9-46.5c-7-7.8-17.9-10.4-27.7-6.6c-9.8,3.8-16.1,13-16.1,23.4    v30.7h-86.6c-54.9,0-99.6,44.7-99.6,99.6c0,20.4,6.2,40.1,17.9,56.9c2.4,3.4,6.1,5.5,10.2,5.8c0.3,0,0.6,0,0.9,0    c3.8,0,7.4-1.6,10-4.5l3.2-3.5C402.8,434,403.3,427.2,399.8,422.1z M574.4,329.8v-59.2l26.7,29.6L574.4,329.8z" vector-effect="non-scaling-stroke" style="fill: rgb(115, 115, 148);"/>
	</g>
	<g>
		<path d="M48,352c-8.8,0-16-7.2-16-16V131c22.8,18.7,58.8,47.6,130.7,104.7c20.5,16.4,56.7,52.5,93.3,52.3    c36.4,0.3,72.3-35.5,93.3-52.3c71.9-57.1,107.9-86,130.7-104.7v123.9h32V48c0-26.5-21.5-48-48-48H48C21.5,0,0,21.5,0,48v288    c0,26.5,21.5,48,48,48h279c0-11,1.4-21.8,4-32H48z M32,48c0-8.8,7.2-16,16-16h416c8.8,0,16,7.2,16,16v41.4    c-21.9,18.5-53.2,44-150.6,121.3c-16.9,13.4-50.2,45.7-73.4,45.3c-23.2,0.4-56.6-31.9-73.4-45.3C85.2,133.4,53.9,107.9,32,89.4V48    z" vector-effect="non-scaling-stroke" style="fill: rgb(115, 115, 148);"/>
	</g>
</g></g></svg>