<svg version="1.2" xmlns="http://www.w3.org/2000/svg" xmlns:xlink="http://www.w3.org/1999/xlink" overflow="visible" preserveAspectRatio="none" viewBox="0 0 514 514" xml:space="preserve" y="0px" x="0px" id="Layer_1_1599659226187" width="17" height="17"><g transform="translate(1, 1)"><style type="text/css">
	.st0_1599659226187{fill:#394042;}
</style><path d="M452,432c0,11-9,20-20,20s-20-9-20-20s9-20,20-20S452,421,452,432z M368,412c-11,0-20,9-20,20s9,20,20,20  s20-9,20-20S379,412,368,412z M512,364v104c0,24.3-19.7,44-44,44H44c-24.3,0-44-19.7-44-44V364c0-24.3,19.7-44,44-44h124v-99.3  h-52.7c-35.6,0-53.4-43.1-28.3-68.3L227.7,11.7c15.6-15.6,40.9-15.6,56.6,0L425,152.4c25.2,25.2,7.3,68.3-28.3,68.3H344V320h124  C492.3,320,512,339.7,512,364z M200,188.7V376c0,4.4,3.6,8,8,8h96c4.4,0,8-3.6,8-8V188.7h84.7c7.1,0,10.7-8.6,5.7-13.7L261.7,34.3  c-3.1-3.1-8.2-3.1-11.3,0L109.7,175c-5,5-1.5,13.7,5.7,13.7H200z M480,364c0-6.6-5.4-12-12-12H344v24c0,22.1-17.9,40-40,40h-96  c-22.1,0-40-17.9-40-40v-24H44c-6.6,0-12,5.4-12,12v104c0,6.6,5.4,12,12,12h424c6.6,0,12-5.4,12-12V364z" class="st0_1599659226187" vector-effect="non-scaling-stroke" style="fill: rgb(115, 115, 148);"/></g></svg>