<svg version="1.2" xmlns="http://www.w3.org/2000/svg" xmlns:xlink="http://www.w3.org/1999/xlink" overflow="visible"
     preserveAspectRatio="none" viewBox="0 0 450 514" xml:space="preserve" y="0px" x="0px" id="Layer_1_1571306241559"
     width="18" height="20"><g transform="translate(1, 1)"><path d="M256,416c0,17.7-14.3,32-32,32s-32-14.3-32-32c0-21.3,14.3-32,32-32S256,398.3,256,416z M448,48v416c0,26.5-21.5,48-48,48  H48c-26.5,0-48-21.5-48-48V48C0,21.5,21.5,0,48,0h352C426.5,0,448,21.5,448,48z M416,48c0-8.8-7.2-16-16-16H48c-8.8,0-16,7.2-16,16  v416c0,8.8,7.2,16,16,16h352c8.8,0,16-7.2,16-16V48z" vector-effect="non-scaling-stroke" style="fill: rgb(38, 39, 59);"/><path
  d="M350,226.8v1h12v67h-12V341H103V103h132.9c5.3-10.4,13.1-19.4,22.6-26H95.3C85.2,77,77,85.2,77,95.3v253.4  c0,10.1,8.2,18.3,18.3,18.3h262.4c10.1,0,18.3-8.2,18.3-18.3V209.4C368.8,217,359.9,223,350,226.8z"
  style="fill: rgb(38, 39, 59);"/><path
  d="M410.9,169.4c-5.1-19-5.1-19,0-38c1.4-5.4-0.1-11.2-4-15.1c-14-14.1-13.7-13.8-18.7-33c-1.4-5.3-5.5-9.6-10.7-11  c-19.2-5.2-18.5-4.9-32.5-19.1c-2.5-2.6-6.3-4.5-10.6-4.5c-1.2,0-2.5,0.2-3.9,0.5c-9.5,2.6-14.1,3.9-18.8,3.9  c-4.6,0-9.3-1.3-18.8-3.9c-1.3-0.4-2.6-0.5-3.9-0.5c-4.3,0-8.1,1.9-10.6,4.5c-14,14.2-13.3,13.8-32.5,19.1c-5.2,1.4-9.3,5.6-10.7,11  c-5,19.2-4.7,18.8-18.7,33c-3.9,3.9-5.4,9.7-4,15.1c5.1,19,5.1,19,0,38c-1.4,5.4,0.1,11.2,4,15.2c14,14.1,13.7,13.9,18.7,32.9  c1.4,5.4,5.5,9.6,10.7,11c1.4,0.4,2.3,0.6,3.5,0.9v81.1c0,4.3,2.2,8.3,5.9,10.6c3.6,2.3,8.3,2.5,12.1,0.5l44.2-22.1l44.2,22.1  c3.9,1.9,8.5,1.7,12.1-0.5c3.7-2.3,5.9-6.3,5.9-10.6v-81.1c1.2-0.3,2.1-0.6,3.5-0.9c5.2-1.4,9.3-5.6,10.7-11  c5-19.1,4.7-18.8,18.7-32.9C410.8,180.6,412.3,174.8,410.9,169.4z M349.1,290.4l-31.8-15.9c-1.7-0.9-3.6-1.3-5.5-1.3v0c0,0,0,0,0,0  c0,0,0,0,0,0v0c-1.9,0-3.8,0.4-5.5,1.3l-31.8,15.9v-46.9c0.1,0.1,0.1,0.1,0.2,0.2c2.9,3,6.8,4.5,10.6,4.5c2.7,0,5.5-0.8,7.9-2.3  c5.6-3.6,12.1-5.4,18.6-5.4c6.5,0,12.9,1.8,18.6,5.4c2.4,1.6,5.2,2.3,7.9,2.3c3.9,0,7.7-1.5,10.6-4.5c0.1-0.1,0.1-0.1,0.2-0.2V290.4  z M365.6,205.9c-11.4,3.1-18.7,5.8-29,15.1c-7.7-3.5-16.1-5.4-24.7-5.4v0c0,0,0,0,0,0s0,0,0,0v0c-8.6,0-17,1.8-24.7,5.4  c-10.3-9.3-17.6-12-29-15.1c-4.7-17.1-7.6-22.3-20-35.1c4.4-17.4,4.4-23.6,0-40.8c12.2-12.6,15.2-17.9,20-35.1  c16.8-4.8,21.9-7.7,34.2-20c7.6,2,13.1,3.2,19.6,3.2v0c0,0,0,0,0,0c0,0,0,0,0,0v0c6.5,0,12-1.2,19.6-3.2  c12.3,12.3,17.4,15.2,34.2,20c4.7,17.2,7.8,22.5,20,35.1c-4.4,17.3-4.4,23.4,0,40.8C373.1,183.6,370.2,188.8,365.6,205.9z"
  style="fill: rgb(38, 39, 59);"/></g></svg>
