<svg version="1.2" xmlns="http://www.w3.org/2000/svg" xmlns:xlink="http://www.w3.org/1999/xlink" overflow="visible" preserveAspectRatio="none" viewBox="0 0 514 514" xml:space="preserve" y="0px" x="0px" id="Layer_1_1573213028068" width="16" height="16"><g transform="translate(1, 1)"><style type="text/css">
	.st0_1573213028068{fill:#394042;}
</style><path d="M256,8C119,8,8,119,8,256s111,248,248,248s248-111,248-248S393,8,256,8z M472,256c0,118.7-96.1,216-216,216  c-118.7,0-216-96.1-216-216c0-118.7,96.1-216,216-216C374.7,40,472,136.1,472,256z M323.1,344.3l-81.2-59c-3.1-2.3-4.9-5.9-4.9-9.7  V116c0-6.6,5.4-12,12-12h14c6.6,0,12,5.4,12,12v146.3l70.5,51.3c5.4,3.9,6.5,11.4,2.6,16.8l-8.2,11.3  C336,347,328.5,348.2,323.1,344.3L323.1,344.3z" class="st0_1573213028068" vector-effect="non-scaling-stroke" style="fill: rgb(142, 143, 166);"/></g></svg>