<svg version="1.2" xmlns="http://www.w3.org/2000/svg" xmlns:xlink="http://www.w3.org/1999/xlink" overflow="visible" preserveAspectRatio="none" viewBox="0 0 642 514" xml:space="preserve" y="0px" x="0px" id="Layer_1_1571307483066" width="20" height="16"><g transform="translate(1, 1)"><path d="M624,368h-48V96c0-35.3-28.7-64-64-64H128c-35.3,0-64,28.7-64,64v272H16c-8.8,0-16,7.2-16,16v48c0,44.1,35.9,80,80,80h480  c44.1,0,80-35.9,80-80v-48C640,375.2,632.8,368,624,368z M96,96c0-17.7,14.3-32,32-32h384c17.7,0,32,14.3,32,32v272H391.1  c-4.1,0-7,3.1-7.9,7.1c-3.2,14.3-16,24.9-31.2,24.9h-64c-15.2,0-28-10.6-31.2-24.9c-0.9-4-3.9-7.1-7.9-7.1H96V96z M608,432  c0,26.5-21.5,48-48,48H80c-26.5,0-48-21.5-48-48v-32h194.8c6.6,18.6,24.4,32,45.2,32h96c20.9,0,38.7-13.4,45.2-32H608V432z" vector-effect="non-scaling-stroke"/><g><path d="M520,379h-31V145.5H151V379h-31V143.1c0-15.8,12.8-28.6,28.6-28.6h342.8c15.8,0,28.6,12.8,28.6,28.6V379z" /></g></g></svg>
